<svg xmlns="http://www.w3.org/2000/svg" viewBox="0 0 560 120" width="560" height="120">
  <rect width="560" height="120" fill="white"/>

  <!-- Box 1: + cross, dot at top -->
  <rect x="5" y="10" width="90" height="90" fill="white" stroke="#1a1a1a" stroke-width="2"/>
  <line x1="50" y1="16" x2="50" y2="94" stroke="#1a1a1a" stroke-width="2.5"/>
  <line x1="11" y1="55" x2="89" y2="55" stroke="#1a1a1a" stroke-width="2.5"/>
  <circle cx="50" cy="33" r="5.5" fill="#1a1a1a"/>

  <!-- Arrow 1 -->
  <text x="104" y="61" font-family="Arial" font-size="22" fill="#1a1a1a" text-anchor="middle">→</text>

  <!-- Box 2: × cross, dot at top-left -->
  <rect x="115" y="10" width="90" height="90" fill="white" stroke="#1a1a1a" stroke-width="2"/>
  <line x1="122" y1="17" x2="198" y2="93" stroke="#1a1a1a" stroke-width="2.5"/>
  <line x1="198" y1="17" x2="122" y2="93" stroke="#1a1a1a" stroke-width="2.5"/>
  <circle cx="147" cy="42" r="5.5" fill="#1a1a1a"/>

  <!-- Arrow 2 -->
  <text x="214" y="61" font-family="Arial" font-size="22" fill="#1a1a1a" text-anchor="middle">→</text>

  <!-- Box 3: + cross, dot at left -->
  <rect x="225" y="10" width="90" height="90" fill="white" stroke="#1a1a1a" stroke-width="2"/>
  <line x1="270" y1="16" x2="270" y2="94" stroke="#1a1a1a" stroke-width="2.5"/>
  <line x1="231" y1="55" x2="309" y2="55" stroke="#1a1a1a" stroke-width="2.5"/>
  <circle cx="252" cy="55" r="5.5" fill="#1a1a1a"/>

  <!-- Arrow 3 -->
  <text x="324" y="61" font-family="Arial" font-size="22" fill="#1a1a1a" text-anchor="middle">→</text>

  <!-- Box 4: × cross, dot at bottom-left -->
  <rect x="335" y="10" width="90" height="90" fill="white" stroke="#1a1a1a" stroke-width="2"/>
  <line x1="342" y1="17" x2="418" y2="93" stroke="#1a1a1a" stroke-width="2.5"/>
  <line x1="418" y1="17" x2="342" y2="93" stroke="#1a1a1a" stroke-width="2.5"/>
  <circle cx="362" cy="68" r="5.5" fill="#1a1a1a"/>

  <!-- Arrow 4 -->
  <text x="434" y="61" font-family="Arial" font-size="22" fill="#1a1a1a" text-anchor="middle">→</text>

  <!-- Question mark -->
  <text x="490" y="68" font-family="Arial" font-size="36" font-weight="bold" fill="#1a1a1a" text-anchor="middle">?</text>
</svg>
